<svg width="720" height="545" viewBox="0 0 720 545" fill="none" xmlns="http://www.w3.org/2000/svg">
<g filter="url(#filter0_i_910_19481)">
<circle cx="555.234" cy="152.696" r="17.2345" fill="url(#paint0_linear_910_19481)"/>
</g>
<g filter="url(#filter1_i_910_19481)">
<circle cx="596.704" cy="463.966" r="24.3311" fill="url(#paint1_linear_910_19481)"/>
</g>
<g filter="url(#filter2_i_910_19481)">
<circle cx="160.773" cy="117.248" r="18.2483" fill="url(#paint2_linear_910_19481)"/>
</g>
<g filter="url(#filter3_i_910_19481)">
<circle cx="168.883" cy="289.593" r="10.1379" fill="url(#paint3_linear_910_19481)"/>
</g>
<g filter="url(#filter4_i_910_19481)">
<circle cx="120.221" cy="439.635" r="16.2207" fill="url(#paint4_linear_910_19481)"/>
</g>
<g filter="url(#filter5_i_910_19481)">
<path fill-rule="evenodd" clip-rule="evenodd" d="M498.155 195.194C498.861 195.899 499.326 196.81 499.483 197.796C501.43 220.821 499.445 244.009 493.611 266.367L427.597 199.643C449.756 193.87 472.737 191.916 495.552 193.866C496.538 194.023 497.449 194.488 498.155 195.194ZM329.808 263.526L265.878 365.719C265.307 366.628 265.061 367.704 265.181 368.771C265.302 369.838 265.781 370.833 266.541 371.591L321.758 426.808C322.196 427.255 322.719 427.611 323.296 427.855C323.874 428.099 324.493 428.226 325.12 428.229C326.014 428.234 326.888 427.97 327.63 427.471L430.155 363.257C459.056 341.617 480.306 311.326 490.817 276.785L417.179 202.532C382.294 213.021 351.678 234.394 329.808 263.526Z" fill="url(#paint5_linear_910_19481)"/>
</g>
<g filter="url(#filter6_bdiii_910_19481)">
<path d="M-nan -nanL275.161 410.896L251.483 434.574C251.039 435.014 250.687 435.538 250.446 436.115C250.206 436.692 250.082 437.311 250.082 437.936C250.082 438.561 250.206 439.18 250.446 439.757C250.687 440.335 251.039 440.858 251.483 441.298C251.926 441.737 252.45 442.085 253.027 442.32C253.604 442.556 254.222 442.675 254.845 442.672C256.088 442.667 257.278 442.173 258.16 441.298L281.838 417.621C282.282 417.18 282.634 416.657 282.875 416.08C283.115 415.503 283.239 414.884 283.239 414.258C283.239 413.633 283.115 413.014 282.875 412.437C282.634 411.86 282.282 411.336 281.838 410.896C280.951 410.014 279.75 409.519 278.499 409.519C277.248 409.519 276.048 410.014 275.161 410.896L-nan -nanZ" fill="url(#paint6_linear_910_19481)"/>
</g>
<g filter="url(#filter7_bdii_910_19481)">
<path fill-rule="evenodd" clip-rule="evenodd" d="M273.488 367.914C273.525 367.878 273.531 367.821 273.502 367.778C273.475 367.737 273.478 367.684 273.51 367.648C273.925 367.18 274.428 366.799 274.991 366.527C275.578 366.243 276.218 366.083 276.871 366.058C277.523 366.032 278.173 366.142 278.781 366.38C279.388 366.618 279.94 366.98 280.402 367.441C280.863 367.903 281.225 368.454 281.463 369.062C281.701 369.67 281.811 370.32 281.785 370.972C281.76 371.625 281.6 372.264 281.316 372.852C281.032 373.44 280.629 373.962 280.134 374.386L269.573 384.947C268.734 385.88 267.559 386.442 266.306 386.51C265.369 386.506 264.455 386.224 263.678 385.7C262.902 385.177 262.298 384.435 261.943 383.568C261.588 382.701 261.498 381.749 261.685 380.831C261.871 379.913 262.326 379.071 262.991 378.412L273.488 367.914ZM222.786 462.373L255.367 429.65C256.259 428.74 257.475 428.22 258.75 428.207C260.024 428.194 261.252 428.687 262.162 429.579C263.073 430.471 263.592 431.688 263.605 432.962C263.619 434.236 263.125 435.464 262.233 436.375L229.463 469.097C228.572 469.983 227.365 470.478 226.108 470.473C224.851 470.469 223.648 469.965 222.762 469.074C221.877 468.182 221.382 466.975 221.387 465.718C221.391 464.462 221.894 463.258 222.786 462.373ZM292.739 395.447C292.768 395.49 292.762 395.547 292.726 395.584L282.228 406.081C281.563 406.741 281.109 407.583 280.922 408.501C280.736 409.418 280.826 410.371 281.18 411.238C281.535 412.104 282.139 412.847 282.916 413.37C283.692 413.894 284.607 414.175 285.543 414.179C286.796 414.112 287.972 413.55 288.811 412.616L299.371 402.056C299.867 401.632 300.269 401.109 300.554 400.522C300.838 399.934 300.997 399.294 301.023 398.642C301.048 397.99 300.938 397.34 300.7 396.732C300.462 396.124 300.101 395.572 299.639 395.111C299.178 394.649 298.626 394.288 298.018 394.05C297.41 393.812 296.76 393.702 296.108 393.727C295.456 393.752 294.816 393.912 294.228 394.196C293.665 394.469 293.162 394.85 292.748 395.317C292.715 395.353 292.712 395.407 292.739 395.447ZM317.815 412.238C317.85 412.202 317.905 412.196 317.947 412.224C317.988 412.251 318.042 412.246 318.078 412.212C318.963 411.364 320.144 410.891 321.372 410.895C322.629 410.899 323.832 411.403 324.718 412.295C325.603 413.186 326.098 414.393 326.094 415.65C326.089 416.907 325.586 418.11 324.694 418.995L314.134 429.556C313.252 430.431 312.061 430.924 310.819 430.929C310.196 430.933 309.578 430.813 309.001 430.578C308.424 430.342 307.899 429.995 307.457 429.556C307.013 429.116 306.661 428.592 306.42 428.015C306.18 427.438 306.056 426.819 306.056 426.194C306.056 425.568 306.18 424.949 306.42 424.372C306.661 423.795 307.013 423.272 307.457 422.831L317.815 412.238ZM286.858 443.241L267.395 462.657C266.951 463.097 266.598 463.621 266.358 464.198C266.118 464.775 265.994 465.394 265.994 466.02C265.994 466.645 266.118 467.264 266.358 467.841C266.598 468.418 266.951 468.942 267.395 469.382C267.837 469.821 268.362 470.168 268.939 470.404C269.516 470.639 270.134 470.759 270.757 470.755C271.38 470.759 271.998 470.639 272.575 470.404C273.152 470.168 273.677 469.821 274.119 469.382L293.535 449.919C294.311 449.013 294.716 447.847 294.67 446.656C294.624 445.464 294.13 444.333 293.286 443.49C292.443 442.646 291.313 442.152 290.121 442.106C288.929 442.06 287.764 442.466 286.858 443.241ZM216.653 422.624L236.116 403.208C237.022 402.433 238.187 402.027 239.379 402.073C240.571 402.119 241.701 402.613 242.544 403.457C243.388 404.3 243.882 405.431 243.928 406.623C243.974 407.814 243.569 408.98 242.793 409.886L223.377 429.349C222.935 429.788 222.41 430.135 221.833 430.371C221.256 430.606 220.638 430.726 220.015 430.722C219.392 430.726 218.774 430.606 218.197 430.371C217.62 430.135 217.095 429.788 216.653 429.349C216.209 428.909 215.856 428.385 215.616 427.808C215.376 427.231 215.252 426.612 215.252 425.987C215.252 425.361 215.376 424.742 215.616 424.165C215.856 423.588 216.209 423.064 216.653 422.624Z" fill="url(#paint7_linear_910_19481)"/>
</g>
<g filter="url(#filter8_i_910_19481)">
<path fill-rule="evenodd" clip-rule="evenodd" d="M498.155 195.194C498.861 195.899 499.326 196.81 499.483 197.796C501.43 220.821 499.445 244.009 493.611 266.367L427.597 199.643C449.756 193.87 472.737 191.916 495.552 193.866C496.538 194.023 497.449 194.488 498.155 195.194ZM329.808 263.526L265.878 365.719C265.307 366.628 265.061 367.704 265.181 368.771C265.302 369.838 265.781 370.833 266.541 371.591L321.758 426.808C322.196 427.255 322.719 427.611 323.296 427.855C323.874 428.099 324.493 428.226 325.12 428.229C326.014 428.234 326.888 427.97 327.63 427.471L430.155 363.257C459.056 341.617 480.306 311.326 490.817 276.785L417.179 202.532C382.294 213.021 351.678 234.394 329.808 263.526Z" fill="url(#paint8_linear_910_19481)"/>
</g>
<g filter="url(#filter9_biii_910_19481)">
<path d="M347.227 410.094C345.049 411.891 344.182 414.813 344.857 417.555C350.453 440.292 347.476 464.359 336.394 485.109C335.824 486.034 335.59 487.127 335.73 488.204C335.87 489.282 336.377 490.278 337.164 491.026C337.669 491.493 338.269 491.845 338.924 492.057C339.578 492.268 340.271 492.335 340.953 492.252C341.741 492.153 342.49 491.859 343.134 491.395C371.108 471.332 429.37 421.714 420.724 361.918C419.996 356.88 414.064 354.963 410.138 358.202L347.227 410.094Z" fill="url(#paint9_linear_910_19481)" fill-opacity="0.09"/>
<path d="M347.227 410.094C345.049 411.891 344.182 414.813 344.857 417.555C350.453 440.292 347.476 464.359 336.394 485.109C335.824 486.034 335.59 487.127 335.73 488.204C335.87 489.282 336.377 490.278 337.164 491.026C337.669 491.493 338.269 491.845 338.924 492.057C339.578 492.268 340.271 492.335 340.953 492.252C341.741 492.153 342.49 491.859 343.134 491.395C371.108 471.332 429.37 421.714 420.724 361.918C419.996 356.88 414.064 354.963 410.138 358.202L347.227 410.094Z" fill="#434C69" fill-opacity="0.05"/>
</g>
<g filter="url(#filter10_biii_910_19481)">
<path d="M285.337 351.016C283.49 353.153 280.549 353.953 277.823 353.215C255.222 347.097 231.092 349.519 210.093 360.121C209.155 360.669 208.057 360.878 206.983 360.713C205.909 360.548 204.925 360.019 204.195 359.215C203.739 358.699 203.402 358.091 203.205 357.432C203.008 356.773 202.958 356.079 203.057 355.398C203.173 354.614 203.485 353.871 203.963 353.238C224.665 325.733 275.61 268.629 335.191 278.647C340.211 279.492 341.991 285.465 338.663 289.317L285.337 351.016Z" fill="url(#paint10_linear_910_19481)" fill-opacity="0.09"/>
<path d="M285.337 351.016C283.49 353.153 280.549 353.953 277.823 353.215C255.222 347.097 231.092 349.519 210.093 360.121C209.155 360.669 208.057 360.878 206.983 360.713C205.909 360.548 204.925 360.019 204.195 359.215C203.739 358.699 203.402 358.091 203.205 357.432C203.008 356.773 202.958 356.079 203.057 355.398C203.173 354.614 203.485 353.871 203.963 353.238C224.665 325.733 275.61 268.629 335.191 278.647C340.211 279.492 341.991 285.465 338.663 289.317L285.337 351.016Z" fill="#434C69" fill-opacity="0.05"/>
</g>
<g filter="url(#filter11_bdiii_910_19481)">
<path d="M-nan -nanL275.161 410.896L251.483 434.574C251.039 435.014 250.687 435.538 250.446 436.115C250.206 436.692 250.082 437.311 250.082 437.936C250.082 438.561 250.206 439.18 250.446 439.757C250.687 440.335 251.039 440.858 251.483 441.298C251.926 441.737 252.45 442.085 253.027 442.32C253.604 442.556 254.222 442.675 254.845 442.672C256.088 442.667 257.278 442.173 258.16 441.298L281.838 417.621C282.282 417.18 282.634 416.657 282.875 416.08C283.115 415.503 283.239 414.884 283.239 414.258C283.239 413.633 283.115 413.014 282.875 412.437C282.634 411.86 282.282 411.336 281.838 410.896C280.951 410.014 279.75 409.519 278.499 409.519C277.248 409.519 276.048 410.014 275.161 410.896L-nan -nanZ" fill="url(#paint11_linear_910_19481)"/>
</g>
<g filter="url(#filter12_bdii_910_19481)">
<path fill-rule="evenodd" clip-rule="evenodd" d="M273.488 367.914C273.525 367.878 273.531 367.821 273.502 367.778C273.475 367.737 273.478 367.684 273.51 367.648C273.925 367.18 274.428 366.799 274.991 366.527C275.578 366.243 276.218 366.083 276.871 366.058C277.523 366.032 278.173 366.142 278.781 366.38C279.388 366.618 279.94 366.98 280.402 367.441C280.863 367.903 281.225 368.454 281.463 369.062C281.701 369.67 281.811 370.32 281.785 370.972C281.76 371.625 281.6 372.264 281.316 372.852C281.032 373.44 280.629 373.962 280.134 374.386L269.573 384.947C268.734 385.88 267.559 386.442 266.306 386.51C265.369 386.506 264.455 386.224 263.678 385.7C262.902 385.177 262.298 384.435 261.943 383.568C261.588 382.701 261.498 381.749 261.685 380.831C261.871 379.913 262.326 379.071 262.991 378.412L273.488 367.914ZM222.786 462.373L255.367 429.65C256.259 428.74 257.475 428.22 258.75 428.207C260.024 428.194 261.252 428.687 262.162 429.579C263.073 430.471 263.592 431.688 263.605 432.962C263.619 434.236 263.125 435.464 262.233 436.375L229.463 469.097C228.572 469.983 227.365 470.478 226.108 470.473C224.851 470.469 223.648 469.965 222.762 469.074C221.877 468.182 221.382 466.975 221.387 465.718C221.391 464.462 221.894 463.258 222.786 462.373ZM292.739 395.447C292.768 395.49 292.762 395.547 292.726 395.584L282.228 406.081C281.563 406.741 281.109 407.583 280.922 408.501C280.736 409.418 280.826 410.371 281.18 411.238C281.535 412.104 282.139 412.847 282.916 413.37C283.692 413.894 284.607 414.175 285.543 414.179C286.796 414.112 287.972 413.55 288.811 412.616L299.371 402.056C299.867 401.632 300.269 401.109 300.554 400.522C300.838 399.934 300.997 399.294 301.023 398.642C301.048 397.99 300.938 397.34 300.7 396.732C300.462 396.124 300.101 395.572 299.639 395.111C299.178 394.649 298.626 394.288 298.018 394.05C297.41 393.812 296.76 393.702 296.108 393.727C295.456 393.752 294.816 393.912 294.228 394.196C293.665 394.469 293.162 394.85 292.748 395.317C292.715 395.353 292.712 395.407 292.739 395.447ZM317.815 412.238C317.85 412.202 317.905 412.196 317.947 412.224C317.988 412.251 318.042 412.246 318.078 412.212C318.963 411.364 320.144 410.891 321.372 410.895C322.629 410.899 323.832 411.403 324.718 412.295C325.603 413.186 326.098 414.393 326.094 415.65C326.089 416.907 325.586 418.11 324.694 418.995L314.134 429.556C313.252 430.431 312.061 430.924 310.819 430.929C310.196 430.933 309.578 430.813 309.001 430.578C308.424 430.342 307.899 429.995 307.457 429.556C307.013 429.116 306.661 428.592 306.42 428.015C306.18 427.438 306.056 426.819 306.056 426.194C306.056 425.568 306.18 424.949 306.42 424.372C306.661 423.795 307.013 423.272 307.457 422.831L317.815 412.238ZM286.858 443.241L267.395 462.657C266.951 463.097 266.598 463.621 266.358 464.198C266.118 464.775 265.994 465.394 265.994 466.02C265.994 466.645 266.118 467.264 266.358 467.841C266.598 468.418 266.951 468.942 267.395 469.382C267.837 469.821 268.362 470.168 268.939 470.404C269.516 470.639 270.134 470.759 270.757 470.755C271.38 470.759 271.998 470.639 272.575 470.404C273.152 470.168 273.677 469.821 274.119 469.382L293.535 449.919C294.311 449.013 294.716 447.847 294.67 446.656C294.624 445.464 294.13 444.333 293.286 443.49C292.443 442.646 291.313 442.152 290.121 442.106C288.929 442.06 287.764 442.466 286.858 443.241ZM216.653 422.624L236.116 403.208C237.022 402.433 238.187 402.027 239.379 402.073C240.571 402.119 241.701 402.613 242.544 403.457C243.388 404.3 243.882 405.431 243.928 406.623C243.974 407.814 243.569 408.98 242.793 409.886L223.377 429.349C222.935 429.788 222.41 430.135 221.833 430.371C221.256 430.606 220.638 430.726 220.015 430.722C219.392 430.726 218.774 430.606 218.197 430.371C217.62 430.135 217.095 429.788 216.653 429.349C216.209 428.909 215.856 428.385 215.616 427.808C215.376 427.231 215.252 426.612 215.252 425.987C215.252 425.361 215.376 424.742 215.616 424.165C215.856 423.588 216.209 423.064 216.653 422.624Z" fill="url(#paint12_linear_910_19481)" fill-opacity="0.2"/>
</g>
<g filter="url(#filter13_bdii_910_19481)">
<circle cx="410.787" cy="277.786" r="35.7686" fill="url(#paint13_linear_910_19481)"/>
</g>
<defs>
<filter id="filter0_i_910_19481" x="538" y="131.246" width="47.1139" height="38.684" filterUnits="userSpaceOnUse" color-interpolation-filters="sRGB">
<feFlood flood-opacity="0" result="BackgroundImageFix"/>
<feBlend mode="normal" in="SourceGraphic" in2="BackgroundImageFix" result="shape"/>
<feColorMatrix in="SourceAlpha" type="matrix" values="0 0 0 0 0 0 0 0 0 0 0 0 0 0 0 0 0 0 127 0" result="hardAlpha"/>
<feOffset dx="12.6449" dy="-4.21496"/>
<feGaussianBlur stdDeviation="14.0499"/>
<feComposite in2="hardAlpha" operator="arithmetic" k2="-1" k3="1"/>
<feColorMatrix type="matrix" values="0 0 0 0 0 0 0 0 0 0 0 0 0 0 0 0 0 0 0.17 0"/>
<feBlend mode="normal" in2="shape" result="effect1_innerShadow_910_19481"/>
</filter>
<filter id="filter1_i_910_19481" x="572.373" y="435.42" width="61.307" height="52.8771" filterUnits="userSpaceOnUse" color-interpolation-filters="sRGB">
<feFlood flood-opacity="0" result="BackgroundImageFix"/>
<feBlend mode="normal" in="SourceGraphic" in2="BackgroundImageFix" result="shape"/>
<feColorMatrix in="SourceAlpha" type="matrix" values="0 0 0 0 0 0 0 0 0 0 0 0 0 0 0 0 0 0 127 0" result="hardAlpha"/>
<feOffset dx="12.6449" dy="-4.21496"/>
<feGaussianBlur stdDeviation="14.0499"/>
<feComposite in2="hardAlpha" operator="arithmetic" k2="-1" k3="1"/>
<feColorMatrix type="matrix" values="0 0 0 0 0 0 0 0 0 0 0 0 0 0 0 0 0 0 0.17 0"/>
<feBlend mode="normal" in2="shape" result="effect1_innerShadow_910_19481"/>
</filter>
<filter id="filter2_i_910_19481" x="142.524" y="94.785" width="49.1415" height="40.7115" filterUnits="userSpaceOnUse" color-interpolation-filters="sRGB">
<feFlood flood-opacity="0" result="BackgroundImageFix"/>
<feBlend mode="normal" in="SourceGraphic" in2="BackgroundImageFix" result="shape"/>
<feColorMatrix in="SourceAlpha" type="matrix" values="0 0 0 0 0 0 0 0 0 0 0 0 0 0 0 0 0 0 127 0" result="hardAlpha"/>
<feOffset dx="12.6449" dy="-4.21496"/>
<feGaussianBlur stdDeviation="14.0499"/>
<feComposite in2="hardAlpha" operator="arithmetic" k2="-1" k3="1"/>
<feColorMatrix type="matrix" values="0 0 0 0 0 0 0 0 0 0 0 0 0 0 0 0 0 0 0.17 0"/>
<feBlend mode="normal" in2="shape" result="effect1_innerShadow_910_19481"/>
</filter>
<filter id="filter3_i_910_19481" x="158.745" y="275.24" width="32.9208" height="24.4908" filterUnits="userSpaceOnUse" color-interpolation-filters="sRGB">
<feFlood flood-opacity="0" result="BackgroundImageFix"/>
<feBlend mode="normal" in="SourceGraphic" in2="BackgroundImageFix" result="shape"/>
<feColorMatrix in="SourceAlpha" type="matrix" values="0 0 0 0 0 0 0 0 0 0 0 0 0 0 0 0 0 0 127 0" result="hardAlpha"/>
<feOffset dx="12.6449" dy="-4.21496"/>
<feGaussianBlur stdDeviation="14.0499"/>
<feComposite in2="hardAlpha" operator="arithmetic" k2="-1" k3="1"/>
<feColorMatrix type="matrix" values="0 0 0 0 0 0 0 0 0 0 0 0 0 0 0 0 0 0 0.17 0"/>
<feBlend mode="normal" in2="shape" result="effect1_innerShadow_910_19481"/>
</filter>
<filter id="filter4_i_910_19481" x="104" y="419.199" width="45.0863" height="36.6564" filterUnits="userSpaceOnUse" color-interpolation-filters="sRGB">
<feFlood flood-opacity="0" result="BackgroundImageFix"/>
<feBlend mode="normal" in="SourceGraphic" in2="BackgroundImageFix" result="shape"/>
<feColorMatrix in="SourceAlpha" type="matrix" values="0 0 0 0 0 0 0 0 0 0 0 0 0 0 0 0 0 0 127 0" result="hardAlpha"/>
<feOffset dx="12.6449" dy="-4.21496"/>
<feGaussianBlur stdDeviation="14.0499"/>
<feComposite in2="hardAlpha" operator="arithmetic" k2="-1" k3="1"/>
<feColorMatrix type="matrix" values="0 0 0 0 0 0 0 0 0 0 0 0 0 0 0 0 0 0 0.17 0"/>
<feBlend mode="normal" in2="shape" result="effect1_innerShadow_910_19481"/>
</filter>
<filter id="filter5_i_910_19481" x="265.151" y="188.919" width="247.701" height="239.309" filterUnits="userSpaceOnUse" color-interpolation-filters="sRGB">
<feFlood flood-opacity="0" result="BackgroundImageFix"/>
<feBlend mode="normal" in="SourceGraphic" in2="BackgroundImageFix" result="shape"/>
<feColorMatrix in="SourceAlpha" type="matrix" values="0 0 0 0 0 0 0 0 0 0 0 0 0 0 0 0 0 0 127 0" result="hardAlpha"/>
<feOffset dx="12.6449" dy="-4.21496"/>
<feGaussianBlur stdDeviation="14.0499"/>
<feComposite in2="hardAlpha" operator="arithmetic" k2="-1" k3="1"/>
<feColorMatrix type="matrix" values="0 0 0 0 0 0 0 0 0 0 0 0 0 0 0 0 0 0 0.17 0"/>
<feBlend mode="normal" in2="shape" result="effect1_innerShadow_910_19481"/>
</filter>
<filter id="filter6_bdiii_910_19481" x="221.983" y="381.419" width="102.001" height="96.3771" filterUnits="userSpaceOnUse" color-interpolation-filters="sRGB">
<feFlood flood-opacity="0" result="BackgroundImageFix"/>
<feGaussianBlur in="BackgroundImage" stdDeviation="14.0499"/>
<feComposite in2="SourceAlpha" operator="in" result="effect1_backgroundBlur_910_19481"/>
<feColorMatrix in="SourceAlpha" type="matrix" values="0 0 0 0 0 0 0 0 0 0 0 0 0 0 0 0 0 0 127 0" result="hardAlpha"/>
<feOffset dx="12.6449" dy="7.02493"/>
<feGaussianBlur stdDeviation="14.0499"/>
<feColorMatrix type="matrix" values="0 0 0 0 0.0690278 0 0 0 0 0.295833 0 0 0 0 0.11166 0 0 0 0.08 0"/>
<feBlend mode="normal" in2="effect1_backgroundBlur_910_19481" result="effect2_dropShadow_910_19481"/>
<feBlend mode="normal" in="SourceGraphic" in2="effect2_dropShadow_910_19481" result="shape"/>
<feColorMatrix in="SourceAlpha" type="matrix" values="0 0 0 0 0 0 0 0 0 0 0 0 0 0 0 0 0 0 127 0" result="hardAlpha"/>
<feOffset dx="-14.0499" dy="14.0499"/>
<feGaussianBlur stdDeviation="7.02493"/>
<feComposite in2="hardAlpha" operator="arithmetic" k2="-1" k3="1"/>
<feColorMatrix type="matrix" values="0 0 0 0 1 0 0 0 0 1 0 0 0 0 1 0 0 0 0.15 0"/>
<feBlend mode="normal" in2="shape" result="effect3_innerShadow_910_19481"/>
<feColorMatrix in="SourceAlpha" type="matrix" values="0 0 0 0 0 0 0 0 0 0 0 0 0 0 0 0 0 0 127 0" result="hardAlpha"/>
<feOffset dy="-14.0499"/>
<feGaussianBlur stdDeviation="7.02493"/>
<feComposite in2="hardAlpha" operator="arithmetic" k2="-1" k3="1"/>
<feColorMatrix type="matrix" values="0 0 0 0 0.156863 0 0 0 0 0.67451 0 0 0 0 0.25098 0 0 0 0.3 0"/>
<feBlend mode="normal" in2="effect3_innerShadow_910_19481" result="effect4_innerShadow_910_19481"/>
<feColorMatrix in="SourceAlpha" type="matrix" values="0 0 0 0 0 0 0 0 0 0 0 0 0 0 0 0 0 0 127 0" result="hardAlpha"/>
<feOffset dx="-4.21496" dy="8.42992"/>
<feGaussianBlur stdDeviation="10.5374"/>
<feComposite in2="hardAlpha" operator="arithmetic" k2="-1" k3="1"/>
<feColorMatrix type="matrix" values="0 0 0 0 0.0770313 0 0 0 0 0.6375 0 0 0 0 0.178935 0 0 0 0.09 0"/>
<feBlend mode="normal" in2="effect4_innerShadow_910_19481" result="effect5_innerShadow_910_19481"/>
</filter>
<filter id="filter7_bdii_910_19481" x="187.152" y="337.954" width="179.687" height="167.925" filterUnits="userSpaceOnUse" color-interpolation-filters="sRGB">
<feFlood flood-opacity="0" result="BackgroundImageFix"/>
<feGaussianBlur in="BackgroundImage" stdDeviation="14.0499"/>
<feComposite in2="SourceAlpha" operator="in" result="effect1_backgroundBlur_910_19481"/>
<feColorMatrix in="SourceAlpha" type="matrix" values="0 0 0 0 0 0 0 0 0 0 0 0 0 0 0 0 0 0 127 0" result="hardAlpha"/>
<feOffset dx="12.6449" dy="7.02493"/>
<feGaussianBlur stdDeviation="14.0499"/>
<feColorMatrix type="matrix" values="0 0 0 0 0.0690278 0 0 0 0 0.295833 0 0 0 0 0.11166 0 0 0 0.08 0"/>
<feBlend mode="normal" in2="effect1_backgroundBlur_910_19481" result="effect2_dropShadow_910_19481"/>
<feBlend mode="normal" in="SourceGraphic" in2="effect2_dropShadow_910_19481" result="shape"/>
<feColorMatrix in="SourceAlpha" type="matrix" values="0 0 0 0 0 0 0 0 0 0 0 0 0 0 0 0 0 0 127 0" result="hardAlpha"/>
<feOffset/>
<feGaussianBlur stdDeviation="7.02493"/>
<feComposite in2="hardAlpha" operator="arithmetic" k2="-1" k3="1"/>
<feColorMatrix type="matrix" values="0 0 0 0 0.156863 0 0 0 0 0.67451 0 0 0 0 0.25098 0 0 0 0.2 0"/>
<feBlend mode="normal" in2="shape" result="effect3_innerShadow_910_19481"/>
<feColorMatrix in="SourceAlpha" type="matrix" values="0 0 0 0 0 0 0 0 0 0 0 0 0 0 0 0 0 0 127 0" result="hardAlpha"/>
<feOffset dx="-4.21496" dy="8.42992"/>
<feGaussianBlur stdDeviation="10.5374"/>
<feComposite in2="hardAlpha" operator="arithmetic" k2="-1" k3="1"/>
<feColorMatrix type="matrix" values="0 0 0 0 0.0770313 0 0 0 0 0.6375 0 0 0 0 0.178935 0 0 0 0.09 0"/>
<feBlend mode="normal" in2="effect3_innerShadow_910_19481" result="effect4_innerShadow_910_19481"/>
</filter>
<filter id="filter8_i_910_19481" x="265.151" y="188.919" width="247.701" height="239.309" filterUnits="userSpaceOnUse" color-interpolation-filters="sRGB">
<feFlood flood-opacity="0" result="BackgroundImageFix"/>
<feBlend mode="normal" in="SourceGraphic" in2="BackgroundImageFix" result="shape"/>
<feColorMatrix in="SourceAlpha" type="matrix" values="0 0 0 0 0 0 0 0 0 0 0 0 0 0 0 0 0 0 127 0" result="hardAlpha"/>
<feOffset dx="12.6449" dy="-4.21496"/>
<feGaussianBlur stdDeviation="14.0499"/>
<feComposite in2="hardAlpha" operator="arithmetic" k2="-1" k3="1"/>
<feColorMatrix type="matrix" values="0 0 0 0 0 0 0 0 0 0 0 0 0 0 0 0 0 0 0.17 0"/>
<feBlend mode="normal" in2="shape" result="effect1_innerShadow_910_19481"/>
</filter>
<filter id="filter9_biii_910_19481" x="307.591" y="328.506" width="142.099" height="191.88" filterUnits="userSpaceOnUse" color-interpolation-filters="sRGB">
<feFlood flood-opacity="0" result="BackgroundImageFix"/>
<feGaussianBlur in="BackgroundImage" stdDeviation="14.0499"/>
<feComposite in2="SourceAlpha" operator="in" result="effect1_backgroundBlur_910_19481"/>
<feBlend mode="normal" in="SourceGraphic" in2="effect1_backgroundBlur_910_19481" result="shape"/>
<feColorMatrix in="SourceAlpha" type="matrix" values="0 0 0 0 0 0 0 0 0 0 0 0 0 0 0 0 0 0 127 0" result="hardAlpha"/>
<feOffset dx="-14.0499" dy="14.0499"/>
<feGaussianBlur stdDeviation="7.02493"/>
<feComposite in2="hardAlpha" operator="arithmetic" k2="-1" k3="1"/>
<feColorMatrix type="matrix" values="0 0 0 0 1 0 0 0 0 1 0 0 0 0 1 0 0 0 0.15 0"/>
<feBlend mode="normal" in2="shape" result="effect2_innerShadow_910_19481"/>
<feColorMatrix in="SourceAlpha" type="matrix" values="0 0 0 0 0 0 0 0 0 0 0 0 0 0 0 0 0 0 127 0" result="hardAlpha"/>
<feOffset dy="-14.0499"/>
<feGaussianBlur stdDeviation="7.02493"/>
<feComposite in2="hardAlpha" operator="arithmetic" k2="-1" k3="1"/>
<feColorMatrix type="matrix" values="0 0 0 0 0.156863 0 0 0 0 0.67451 0 0 0 0 0.25098 0 0 0 0.05 0"/>
<feBlend mode="normal" in2="effect2_innerShadow_910_19481" result="effect3_innerShadow_910_19481"/>
<feColorMatrix in="SourceAlpha" type="matrix" values="0 0 0 0 0 0 0 0 0 0 0 0 0 0 0 0 0 0 127 0" result="hardAlpha"/>
<feOffset dx="-4.21496" dy="8.42992"/>
<feGaussianBlur stdDeviation="10.5374"/>
<feComposite in2="hardAlpha" operator="arithmetic" k2="-1" k3="1"/>
<feColorMatrix type="matrix" values="0 0 0 0 0.0770313 0 0 0 0 0.6375 0 0 0 0 0.178935 0 0 0 0.2 0"/>
<feBlend mode="normal" in2="effect3_innerShadow_910_19481" result="effect4_innerShadow_910_19481"/>
</filter>
<filter id="filter10_biii_910_19481" x="174.908" y="249.382" width="193.552" height="139.486" filterUnits="userSpaceOnUse" color-interpolation-filters="sRGB">
<feFlood flood-opacity="0" result="BackgroundImageFix"/>
<feGaussianBlur in="BackgroundImage" stdDeviation="14.0499"/>
<feComposite in2="SourceAlpha" operator="in" result="effect1_backgroundBlur_910_19481"/>
<feBlend mode="normal" in="SourceGraphic" in2="effect1_backgroundBlur_910_19481" result="shape"/>
<feColorMatrix in="SourceAlpha" type="matrix" values="0 0 0 0 0 0 0 0 0 0 0 0 0 0 0 0 0 0 127 0" result="hardAlpha"/>
<feOffset dx="-14.0499" dy="14.0499"/>
<feGaussianBlur stdDeviation="7.02493"/>
<feComposite in2="hardAlpha" operator="arithmetic" k2="-1" k3="1"/>
<feColorMatrix type="matrix" values="0 0 0 0 1 0 0 0 0 1 0 0 0 0 1 0 0 0 0.15 0"/>
<feBlend mode="normal" in2="shape" result="effect2_innerShadow_910_19481"/>
<feColorMatrix in="SourceAlpha" type="matrix" values="0 0 0 0 0 0 0 0 0 0 0 0 0 0 0 0 0 0 127 0" result="hardAlpha"/>
<feOffset dy="-14.0499"/>
<feGaussianBlur stdDeviation="7.02493"/>
<feComposite in2="hardAlpha" operator="arithmetic" k2="-1" k3="1"/>
<feColorMatrix type="matrix" values="0 0 0 0 0.156863 0 0 0 0 0.67451 0 0 0 0 0.25098 0 0 0 0.05 0"/>
<feBlend mode="normal" in2="effect2_innerShadow_910_19481" result="effect3_innerShadow_910_19481"/>
<feColorMatrix in="SourceAlpha" type="matrix" values="0 0 0 0 0 0 0 0 0 0 0 0 0 0 0 0 0 0 127 0" result="hardAlpha"/>
<feOffset dx="-4.21496" dy="8.42992"/>
<feGaussianBlur stdDeviation="10.5374"/>
<feComposite in2="hardAlpha" operator="arithmetic" k2="-1" k3="1"/>
<feColorMatrix type="matrix" values="0 0 0 0 0.0770313 0 0 0 0 0.6375 0 0 0 0 0.178935 0 0 0 0.2 0"/>
<feBlend mode="normal" in2="effect3_innerShadow_910_19481" result="effect4_innerShadow_910_19481"/>
</filter>
<filter id="filter11_bdiii_910_19481" x="221.983" y="381.419" width="102.001" height="96.3771" filterUnits="userSpaceOnUse" color-interpolation-filters="sRGB">
<feFlood flood-opacity="0" result="BackgroundImageFix"/>
<feGaussianBlur in="BackgroundImage" stdDeviation="14.0499"/>
<feComposite in2="SourceAlpha" operator="in" result="effect1_backgroundBlur_910_19481"/>
<feColorMatrix in="SourceAlpha" type="matrix" values="0 0 0 0 0 0 0 0 0 0 0 0 0 0 0 0 0 0 127 0" result="hardAlpha"/>
<feOffset dx="12.6449" dy="7.02493"/>
<feGaussianBlur stdDeviation="14.0499"/>
<feColorMatrix type="matrix" values="0 0 0 0 0.0690278 0 0 0 0 0.295833 0 0 0 0 0.11166 0 0 0 0.08 0"/>
<feBlend mode="normal" in2="effect1_backgroundBlur_910_19481" result="effect2_dropShadow_910_19481"/>
<feBlend mode="normal" in="SourceGraphic" in2="effect2_dropShadow_910_19481" result="shape"/>
<feColorMatrix in="SourceAlpha" type="matrix" values="0 0 0 0 0 0 0 0 0 0 0 0 0 0 0 0 0 0 127 0" result="hardAlpha"/>
<feOffset dx="-14.0499" dy="14.0499"/>
<feGaussianBlur stdDeviation="7.02493"/>
<feComposite in2="hardAlpha" operator="arithmetic" k2="-1" k3="1"/>
<feColorMatrix type="matrix" values="0 0 0 0 1 0 0 0 0 1 0 0 0 0 1 0 0 0 0.15 0"/>
<feBlend mode="normal" in2="shape" result="effect3_innerShadow_910_19481"/>
<feColorMatrix in="SourceAlpha" type="matrix" values="0 0 0 0 0 0 0 0 0 0 0 0 0 0 0 0 0 0 127 0" result="hardAlpha"/>
<feOffset dy="-14.0499"/>
<feGaussianBlur stdDeviation="7.02493"/>
<feComposite in2="hardAlpha" operator="arithmetic" k2="-1" k3="1"/>
<feColorMatrix type="matrix" values="0 0 0 0 0.156863 0 0 0 0 0.67451 0 0 0 0 0.25098 0 0 0 0.3 0"/>
<feBlend mode="normal" in2="effect3_innerShadow_910_19481" result="effect4_innerShadow_910_19481"/>
<feColorMatrix in="SourceAlpha" type="matrix" values="0 0 0 0 0 0 0 0 0 0 0 0 0 0 0 0 0 0 127 0" result="hardAlpha"/>
<feOffset dx="-4.21496" dy="8.42992"/>
<feGaussianBlur stdDeviation="10.5374"/>
<feComposite in2="hardAlpha" operator="arithmetic" k2="-1" k3="1"/>
<feColorMatrix type="matrix" values="0 0 0 0 0.0770313 0 0 0 0 0.6375 0 0 0 0 0.178935 0 0 0 0.09 0"/>
<feBlend mode="normal" in2="effect4_innerShadow_910_19481" result="effect5_innerShadow_910_19481"/>
</filter>
<filter id="filter12_bdii_910_19481" x="187.152" y="337.954" width="179.687" height="167.925" filterUnits="userSpaceOnUse" color-interpolation-filters="sRGB">
<feFlood flood-opacity="0" result="BackgroundImageFix"/>
<feGaussianBlur in="BackgroundImage" stdDeviation="14.0499"/>
<feComposite in2="SourceAlpha" operator="in" result="effect1_backgroundBlur_910_19481"/>
<feColorMatrix in="SourceAlpha" type="matrix" values="0 0 0 0 0 0 0 0 0 0 0 0 0 0 0 0 0 0 127 0" result="hardAlpha"/>
<feOffset dx="12.6449" dy="7.02493"/>
<feGaussianBlur stdDeviation="14.0499"/>
<feColorMatrix type="matrix" values="0 0 0 0 0.0690278 0 0 0 0 0.295833 0 0 0 0 0.11166 0 0 0 0.08 0"/>
<feBlend mode="normal" in2="effect1_backgroundBlur_910_19481" result="effect2_dropShadow_910_19481"/>
<feBlend mode="normal" in="SourceGraphic" in2="effect2_dropShadow_910_19481" result="shape"/>
<feColorMatrix in="SourceAlpha" type="matrix" values="0 0 0 0 0 0 0 0 0 0 0 0 0 0 0 0 0 0 127 0" result="hardAlpha"/>
<feOffset/>
<feGaussianBlur stdDeviation="7.02493"/>
<feComposite in2="hardAlpha" operator="arithmetic" k2="-1" k3="1"/>
<feColorMatrix type="matrix" values="0 0 0 0 0.156863 0 0 0 0 0.67451 0 0 0 0 0.25098 0 0 0 0.2 0"/>
<feBlend mode="normal" in2="shape" result="effect3_innerShadow_910_19481"/>
<feColorMatrix in="SourceAlpha" type="matrix" values="0 0 0 0 0 0 0 0 0 0 0 0 0 0 0 0 0 0 127 0" result="hardAlpha"/>
<feOffset dx="-4.21496" dy="8.42992"/>
<feGaussianBlur stdDeviation="10.5374"/>
<feComposite in2="hardAlpha" operator="arithmetic" k2="-1" k3="1"/>
<feColorMatrix type="matrix" values="0 0 0 0 0.0770313 0 0 0 0 0.6375 0 0 0 0 0.178935 0 0 0 0.09 0"/>
<feBlend mode="normal" in2="effect3_innerShadow_910_19481" result="effect4_innerShadow_910_19481"/>
</filter>
<filter id="filter13_bdii_910_19481" x="346.918" y="213.918" width="140.381" height="134.762" filterUnits="userSpaceOnUse" color-interpolation-filters="sRGB">
<feFlood flood-opacity="0" result="BackgroundImageFix"/>
<feGaussianBlur in="BackgroundImage" stdDeviation="14.0499"/>
<feComposite in2="SourceAlpha" operator="in" result="effect1_backgroundBlur_910_19481"/>
<feColorMatrix in="SourceAlpha" type="matrix" values="0 0 0 0 0 0 0 0 0 0 0 0 0 0 0 0 0 0 127 0" result="hardAlpha"/>
<feOffset dx="12.6449" dy="7.02493"/>
<feGaussianBlur stdDeviation="14.0499"/>
<feColorMatrix type="matrix" values="0 0 0 0 0.0690278 0 0 0 0 0.295833 0 0 0 0 0.11166 0 0 0 0.08 0"/>
<feBlend mode="normal" in2="effect1_backgroundBlur_910_19481" result="effect2_dropShadow_910_19481"/>
<feBlend mode="normal" in="SourceGraphic" in2="effect2_dropShadow_910_19481" result="shape"/>
<feColorMatrix in="SourceAlpha" type="matrix" values="0 0 0 0 0 0 0 0 0 0 0 0 0 0 0 0 0 0 127 0" result="hardAlpha"/>
<feOffset dx="-14.0499" dy="14.0499"/>
<feGaussianBlur stdDeviation="7.02493"/>
<feComposite in2="hardAlpha" operator="arithmetic" k2="-1" k3="1"/>
<feColorMatrix type="matrix" values="0 0 0 0 1 0 0 0 0 1 0 0 0 0 1 0 0 0 0.15 0"/>
<feBlend mode="normal" in2="shape" result="effect3_innerShadow_910_19481"/>
<feColorMatrix in="SourceAlpha" type="matrix" values="0 0 0 0 0 0 0 0 0 0 0 0 0 0 0 0 0 0 127 0" result="hardAlpha"/>
<feOffset dx="4.21496" dy="-8.42992"/>
<feGaussianBlur stdDeviation="6.32244"/>
<feComposite in2="hardAlpha" operator="arithmetic" k2="-1" k3="1"/>
<feColorMatrix type="matrix" values="0 0 0 0 0.0199306 0 0 0 0 0.341667 0 0 0 0 0.0521041 0 0 0 0.05 0"/>
<feBlend mode="normal" in2="effect3_innerShadow_910_19481" result="effect4_innerShadow_910_19481"/>
</filter>
<linearGradient id="paint0_linear_910_19481" x1="538" y1="172.093" x2="583.104" y2="153.725" gradientUnits="userSpaceOnUse">
<stop stop-color="#2E3393"/>
<stop offset="1" stop-color="#1CFAFC"/>
</linearGradient>
<linearGradient id="paint1_linear_910_19481" x1="572.373" y1="491.351" x2="636.05" y2="465.418" gradientUnits="userSpaceOnUse">
<stop stop-color="#2E3393"/>
<stop offset="1" stop-color="#1CFAFC"/>
</linearGradient>
<linearGradient id="paint2_linear_910_19481" x1="142.524" y1="137.787" x2="190.282" y2="118.338" gradientUnits="userSpaceOnUse">
<stop stop-color="#2E3393"/>
<stop offset="1" stop-color="#1CFAFC"/>
</linearGradient>
<linearGradient id="paint3_linear_910_19481" x1="158.745" y1="301.004" x2="185.277" y2="290.199" gradientUnits="userSpaceOnUse">
<stop stop-color="#2E3393"/>
<stop offset="1" stop-color="#1CFAFC"/>
</linearGradient>
<linearGradient id="paint4_linear_910_19481" x1="104" y1="457.891" x2="146.451" y2="440.603" gradientUnits="userSpaceOnUse">
<stop stop-color="#2E3393"/>
<stop offset="1" stop-color="#1CFAFC"/>
</linearGradient>
<linearGradient id="paint5_linear_910_19481" x1="265.151" y1="442.981" x2="572.748" y2="317.733" gradientUnits="userSpaceOnUse">
<stop stop-color="#2E3393"/>
<stop offset="1" stop-color="#1CFAFC"/>
</linearGradient>
<linearGradient id="paint6_linear_910_19481" x1="254.641" y1="451.075" x2="282.554" y2="439.136" gradientUnits="userSpaceOnUse">
<stop stop-color="#0085FF"/>
<stop offset="1" stop-color="#70E5FF"/>
</linearGradient>
<linearGradient id="paint7_linear_910_19481" x1="230.493" y1="497.294" x2="322.097" y2="455.818" gradientUnits="userSpaceOnUse">
<stop stop-color="#0085FF"/>
<stop offset="1" stop-color="#70E5FF"/>
</linearGradient>
<linearGradient id="paint8_linear_910_19481" x1="265.151" y1="442.981" x2="572.748" y2="317.733" gradientUnits="userSpaceOnUse">
<stop stop-color="#2E3393"/>
<stop offset="1" stop-color="#1CFAFC"/>
</linearGradient>
<linearGradient id="paint9_linear_910_19481" x1="408.325" y1="352.631" x2="386.484" y2="497.196" gradientUnits="userSpaceOnUse">
<stop stop-color="#5DC1E1"/>
<stop offset="1" stop-color="#0017E3"/>
</linearGradient>
<linearGradient id="paint10_linear_910_19481" x1="344.19" y1="291.257" x2="199.162" y2="309.766" gradientUnits="userSpaceOnUse">
<stop stop-color="#5DC1E1"/>
<stop offset="1" stop-color="#0017E3"/>
</linearGradient>
<linearGradient id="paint11_linear_910_19481" x1="254.641" y1="451.075" x2="282.554" y2="439.136" gradientUnits="userSpaceOnUse">
<stop stop-color="#0085FF"/>
<stop offset="1" stop-color="#70E5FF"/>
</linearGradient>
<linearGradient id="paint12_linear_910_19481" x1="230.493" y1="497.294" x2="322.097" y2="455.818" gradientUnits="userSpaceOnUse">
<stop stop-color="#0085FF"/>
<stop offset="1" stop-color="#70E5FF"/>
</linearGradient>
<linearGradient id="paint13_linear_910_19481" x1="384.854" y1="331.687" x2="445.079" y2="305.93" gradientUnits="userSpaceOnUse">
<stop stop-color="#0085FF"/>
<stop offset="1" stop-color="#70E5FF"/>
</linearGradient>
</defs>
</svg>
